<svg xmlns="http://www.w3.org/2000/svg" xmlns:xlink="http://www.w3.org/1999/xlink" preserveAspectRatio="xMidYMid" width="54" height="17" viewBox="0 0 54 17">
  <defs>
    <style>
      .cls-1 {
        fill: red;
      }
    </style>
  </defs>
  <path d="M49.000,6.000 L49.000,-0.000 L54.000,-0.000 L54.000,6.000 L49.000,6.000 ZM42.000,-0.000 L47.000,-0.000 L47.000,17.000 L42.000,17.000 L42.000,-0.000 ZM35.000,-0.000 L40.000,-0.000 L40.000,11.000 L35.000,11.000 L35.000,-0.000 ZM28.000,-0.000 L33.000,-0.000 L33.000,6.000 L28.000,6.000 L28.000,-0.000 ZM21.000,-0.000 L26.000,-0.000 L26.000,11.000 L21.000,11.000 L21.000,-0.000 ZM14.000,-0.000 L19.000,-0.000 L19.000,17.000 L14.000,17.000 L14.000,-0.000 ZM7.000,-0.000 L12.000,-0.000 L12.000,11.000 L7.000,11.000 L7.000,-0.000 ZM-0.000,-0.000 L5.000,-0.000 L5.000,6.000 L-0.000,6.000 L-0.000,-0.000 Z" class="cls-1"/>
</svg>
